<svg width="49" height="49" viewBox="0 0 49 49" fill="none" xmlns="http://www.w3.org/2000/svg">
<mask id="mask0_8_9" style="mask-type:alpha" maskUnits="userSpaceOnUse" x="0" y="0" width="49" height="49">
<rect width="49" height="49" fill="#D9D9D9"/>
</mask>
<g mask="url(#mask0_8_9)">
<path d="M14.2917 18.375V14.2917H42.875V18.375H14.2917ZM14.2917 26.5417V22.4584H42.875V26.5417H14.2917ZM14.2917 34.7084V30.625H42.875V34.7084H14.2917ZM8.16667 18.375C7.58819 18.375 7.1033 18.1794 6.71198 17.788C6.32066 17.3967 6.125 16.9118 6.125 16.3334C6.125 15.7549 6.32066 15.27 6.71198 14.8787C7.1033 14.4873 7.58819 14.2917 8.16667 14.2917C8.74514 14.2917 9.23003 14.4873 9.62135 14.8787C10.0127 15.27 10.2083 15.7549 10.2083 16.3334C10.2083 16.9118 10.0127 17.3967 9.62135 17.788C9.23003 18.1794 8.74514 18.375 8.16667 18.375ZM8.16667 26.5417C7.58819 26.5417 7.1033 26.346 6.71198 25.9547C6.32066 25.5634 6.125 25.0785 6.125 24.5C6.125 23.9215 6.32066 23.4367 6.71198 23.0453C7.1033 22.654 7.58819 22.4584 8.16667 22.4584C8.74514 22.4584 9.23003 22.654 9.62135 23.0453C10.0127 23.4367 10.2083 23.9215 10.2083 24.5C10.2083 25.0785 10.0127 25.5634 9.62135 25.9547C9.23003 26.346 8.74514 26.5417 8.16667 26.5417ZM8.16667 34.7084C7.58819 34.7084 7.1033 34.5127 6.71198 34.1214C6.32066 33.7301 6.125 33.2452 6.125 32.6667C6.125 32.0882 6.32066 31.6033 6.71198 31.212C7.1033 30.8207 7.58819 30.625 8.16667 30.625C8.74514 30.625 9.23003 30.8207 9.62135 31.212C10.0127 31.6033 10.2083 32.0882 10.2083 32.6667C10.2083 33.2452 10.0127 33.7301 9.62135 34.1214C9.23003 34.5127 8.74514 34.7084 8.16667 34.7084Z" fill="#D2D2D3"/>
</g>
</svg>
